<?xml version="1.0" encoding="utf-8"?>
<?xml-stylesheet type="text/xsl" href="rss1.xsl"?>
<rss version="2.0" xmlns:atom="http://www.w3.org/2005/Atom" xmlns:content="http://purl.org/rss/1.0/modules/content/" xmlns:dc="http://purl.org/dc/elements/1.1/" xmlns:media="http://search.yahoo.com/mrss/">
<channel>
 <title>Getty</title>
 <link>http://www.gettyimg.com/</link>
 <atom:link href="http://www.gettyimg.com/" rel="self" type="application/rss+xml" />

 
                <item>
                <title><![CDATA[【Cinema Center】SERIES - A Pup Named Scooby Doo S03 480p BMG WEB-DL DUAL]]></title>
                <link><![CDATA[https://sharemania.us/threads/a-pup-named-scooby-doo-s03-480p-bmg-web-dl-dual.249732/]]></link>
                <description><![CDATA[<article>
<blockquote class="messageText SelectQuoteContainer ugc baseHtml">
<img src="https://image.tmdb.org/t/p/original/rmDq8pC2NE5vS6La7ccNPtsLmdN.jpg" class="bbCodeImage LbImage" alt="[​IMG]" data-url="https://image.tmdb.org/t/p/original/rmDq8pC2NE5vS6La7ccNPtsLmdN.jpg" style=""> <br>
<br>
Sinopsis: Spin-Off de la serie original Scooby Doo que nos muestra las divertidas aventuras del joven cachorro Scooby y sus amigos Shaggy, Daphne, Velma y Fred cuando eran pequeños.<br>
<br>
<div class="ToggleTriggerAnchor bbCodeSpoilerContainer">
<button type="button" class="button bbCodeSpoilerButton ToggleTrigger Tooltip JsOnly" data-target="> .SpoilerTarget"><span>Spoiler: <span class="SpoilerTitle">Media Info</span></span></button>
<div class="SpoilerTarget bbCodeSpoilerText">Video<br>
ID : 1<br>
Format : AVC<br>
Format/Info : Advanced Video Codec<br>
Format profile : Constrained Baseline@L3<br>
Format settings : 4 Ref Frames<br>
Format settings, CABAC : No<br>
Format settings, Reference fra : 4 frames<br>
Format settings, GOP : M=1, N=60<br>
Codec ID : V_MPEG4/ISO/AVC<br>
Duration : 23 min 19 s<br>
Bit rate : 4 999 kb/s<br>
Width : 634 pixels<br>
Height : 474 pixels<br>
Display aspect ratio : 4:3<br>
Frame rate mode : Constant<br>
Frame rate : 29.970 (30000/1001) FPS<br>
Color space : YUV<br>
Chroma subsampling : 4:2:0<br>
Bit depth : 8 bits<br>
Scan type : Progressive<br>
Bits/(Pixel*Frame) : 0.555<br>
Stream size : 834 MiB (95%)<br>
Writing library : Zencoder Video Encoding System<br>
Default : Yes<br>
Forced : No<br>
<br>
Audio #1<br>
ID : 2<br>
Format : AAC LC<br>
Format/Info : Advanced Audio Codec Low Complexity<br>
Codec ID : A_AAC-2<br>
Duration : 23 min 19 s<br>
Bit rate : 128 kb/s<br>
Channel(s) : 2 channels<br>
Channel layout : L R<br>
Sampling rate : 48.0 kHz<br>
Frame rate : 46.875 FPS (1024 SPF)<br>
Compression mode : Lossy<br>
Stream size : 21.3 MiB (2%)<br>
Title : English<br>
Language : English<br>
Default : No<br>
Forced : No<br>
<br>
Audio #2<br>
ID : 3<br>
Format : AAC LC<br>
Format/Info : Advanced Audio Codec Low Complexity<br>
Codec ID : A_AAC-2<br>
Duration : 23 min 19 s<br>
Bit rate : 128 kb/s<br>
Channel(s) : 2 channels<br>
Channel layout : L R<br>
Sampling rate : 48.0 kHz<br>
Frame rate : 46.875 FPS (1024 SPF)<br>
Compression mode : Lossy<br>
Stream size : 21.3 MiB (2%)<br>
Title : Spanish<br>
Language : Spanish<br>
Default : Yes<br>
Forced : No<br>
<br>
Text<br>
ID : 4<br>
Format : UTF-8<br>
Codec ID : S_TEXT/UTF8<br>
Codec ID/Info : UTF-8 Plain Text<br>
Duration : 23 min 4 s<br>
Bit rate : 97 b/s<br>
Frame rate : 0.423 FPS<br>
Count of elements : 585<br>
Stream size : 16.4 KiB (0%)<br>
Language : English<br>
Default : No<br>
Forced : No</div>
</div><br>
Captura<br>
<br>
<img src="https://i.ibb.co/q1zFMkS/A-Pup-Named-Scooby-Doo-S03-E01-Noche-de-la-motocicleta-perdida-474p-mkv-thumbs.png" class="bbCodeImage LbImage" alt="[​IMG]" data-url="https://i.ibb.co/q1zFMkS/A-Pup-Named-Scooby-Doo-S03-E01-Noche-de-la-motocicleta-perdida-474p-mkv-thumbs.png" style=""> <br>
<br>
<div class="bbCodeBlock bbCodeVfcHH HiddenContent">
<div class="attribution type">Hidden Content:</div>
<blockquote>You must reply before you can see the hidden data contained here.</blockquote>
</div>
<div class="messageTextEndMarker">&nbsp;</div>
</blockquote>
</article>]]></description>
                <author><![CDATA[santibg0604]]></author>
                </item>

                </channel></rss>